<svg width="400" height="400" viewBox="0 0 240 240" xmlns="http://www.w3.org/2000/svg" role="img" aria-labelledby="title desc">
  <title id="title">NeuroLjus Logo · Aurora Latente</title>
  <desc id="desc">Protected core with aurora rings, latent violet portal and subtle neural lines.</desc>
  <defs>
    <radialGradient id="coreGlow" cx="50%" cy="50%" r="65%">
      <stop offset="0%" stop-color="#FFFFFF" stop-opacity="1"/>
      <stop offset="100%" stop-color="#A685F7" stop-opacity="0.25"/>
    </radialGradient>
    <linearGradient id="auroraMain" x1="0%" y1="0%" x2="100%" y2="100%">
      <stop offset="0%" stop-color="#5EE6A4"/>
      <stop offset="100%" stop-color="#7CE3F7"/>
    </linearGradient>
    <linearGradient id="auroraAlt" x1="100%" y1="0%" x2="0%" y2="100%">
      <stop offset="0%" stop-color="#A685F7" stop-opacity="0.85"/>
      <stop offset="100%" stop-color="#7CE3F7" stop-opacity="0.7"/>
    </linearGradient>
    <radialGradient id="latentPortal" cx="50%" cy="50%" r="40%">
      <stop offset="0%" stop-color="#A685F7" stop-opacity="0.45"/>
      <stop offset="100%" stop-color="transparent" stop-opacity="0"/>
    </radialGradient>
  </defs>
  <rect width="100%" height="100%" fill="none"/>
  <circle cx="120" cy="120" r="75" fill="url(#latentPortal)"/>
  <circle cx="120" cy="120" r="52" fill="url(#coreGlow)"/>
  <path d="M36,120c0,-48 36,-84 84,-84c48,0 84,36 84,84c0,48 -36,84 -84,84c-48,0 -84,-36 -84,-84z" fill="none" stroke="url(#auroraMain)" stroke-width="6" stroke-linecap="round"/>
  <path d="M24,120c0,-58 46,-96 96,-96c58,0 96,38 96,96c0,58 -38,96 -96,96c-58,0 -96,-38 -96,-96z" fill="none" stroke="url(#auroraAlt)" stroke-width="3.8" stroke-linecap="round" stroke-dasharray="10 12"/>
  <path d="M68,150 C110,110 130,130 172,92" fill="none" stroke="url(#auroraAlt)" stroke-width="2" stroke-linecap="round" opacity="0.65"/>
  <path d="M68,92 C105,145 135,118 172,150" fill="none" stroke="url(#auroraMain)" stroke-width="2" stroke-linecap="round" opacity="0.65"/>
</svg>
